<?xml version="1.0" encoding="utf-8" ?>
<svg xmlns="http://www.w3.org/2000/svg" xmlns:xlink="http://www.w3.org/1999/xlink" width="1024" height="1024">
	<path fill="#010101" transform="scale(2 2)" d="M283.445 196.63L282.683 195.599C273.791 183.359 271.398 163.34 273.836 148.569C277.637 125.544 287.333 116.701 302.875 101.221C310.334 93.7913 317.425 85.9234 326.038 79.7938C348.125 64.0756 379.461 61.8083 402.605 76.5346C413.093 83.2084 433.994 105.895 441.642 116.736C441.93 119.731 443.822 122.152 444.908 124.873C453.74 146.995 449.507 173.717 434.926 192.351C428.911 200.038 416.151 212.477 408.548 219.478C384.63 241.504 357.45 246.212 327.673 233.643C325.363 232.544 323.056 231.34 320.657 230.449C312.786 238.869 304.379 246.78 296.266 254.965L284.334 267.067C270.942 280.638 262.476 286.891 242.001 280.496C233.963 288.415 225.825 296.279 217.959 304.368C219.996 306.378 221.983 308.427 223.954 310.501C224.578 313.069 226.513 314.955 227.74 317.224C238.002 336.194 236.593 359.755 226.834 378.633C219.618 392.592 199.19 414.031 185.609 423.505C161.048 440.64 126.707 444.945 100.743 428.123C98.6982 426.798 93.8281 422.566 91.7523 422.297C76.0211 408.673 65.0622 398.684 58.1793 378.251C50.8125 356.38 54.6135 331.084 69.3111 313.113C76.0012 304.933 97.9844 283.008 105.903 277.229C127.167 261.712 155.089 261.489 178.312 273.087L217.841 233.075C236.275 214.679 242.835 205.45 269.517 211.683C271.815 207.765 279.928 200.373 283.445 196.63ZM407.215 85.1693C382.766 63.9192 345.6 67.2924 321.93 87.8672C314.055 94.7124 299.477 109.335 292.821 117.063C275.911 136.694 271.119 170.929 285.83 193.289L287.618 191.526C289.468 190.321 291.249 187.955 292.788 186.33L301.222 177.471C307.027 171.4 311.071 167.819 319.799 167.091C318.72 150.723 330.223 141.464 340.686 131.149C345.457 126.446 349.933 120.541 356.031 117.469C372.648 109.096 391.4 118.015 399.411 134.07C408.005 156.894 396.045 165.756 382.177 179.593C372.344 189.404 367.34 197.67 353.002 200.158L353.002 195.294C364.37 195.409 382.137 174.401 390.279 166.009C399.623 156.376 401.415 139.034 391.173 129.205C388.743 124.655 381.995 121.273 377.235 119.809C360.653 114.708 352.155 125.22 341.793 135.563C332.296 145.042 324.024 152.587 323.806 167.091C325.35 167.087 326.899 167.061 328.442 167.091C339.019 169.5 344.647 175.971 348.492 185.485C349.002 207.633 338.828 212.632 323.806 227.478L330.585 230.449C356.685 243.575 385.987 235.278 406.368 215.888C414.024 208.604 426.481 196.593 432.418 188.847C449.598 166.435 449.9 131.48 431.517 109.772C427.889 105.488 411.325 88.2617 407.215 85.1693ZM315.883 172.35C309.919 171.375 290.54 192.648 289.831 196.63C282.52 202.186 276.151 210.249 269.517 216.659C249.784 207.675 237.771 219.088 224.825 232.078L179.815 277.161C174.95 281.996 157.062 298.685 154.908 303.458C150.598 313.007 152.144 323.82 160.457 330.436C162.769 332.702 167.239 334.047 170.382 334.454C183.058 336.096 190.134 325.99 198.076 318.032L226.841 289.604C231.291 285.203 236.789 278.928 241.647 275.251L242.001 274.986C244.602 277.458 248.469 278.313 251.944 278.664C266.179 280.099 273.159 272.627 282.126 263.447L326.857 218.547C333.838 211.45 343.4 204.639 344.352 193.973C344.705 190.025 344.026 184.037 341.39 180.892C336.589 171.842 325.057 168.857 315.883 172.35ZM173.245 277.879L174.919 276.2C154.731 265.922 128.121 266.274 109.407 279.78C98.7381 287.479 70.7026 316.371 65.2637 327.238C53.1864 351.37 58.5177 382.177 76.4894 401.969C78.2776 405.55 84.8735 410.821 87.993 413.528C117.392 439.04 155.016 443.128 186.491 417.873C192.976 412.67 204.158 401.907 209.806 395.777C230.272 373.565 240.044 337.826 219.415 312.283C218.083 310.499 216.586 308.997 214.901 307.546C205.951 316.393 197.039 325.364 187.911 334.024C189.204 337.01 189.453 340.13 189.658 343.347C189.187 348 188.449 352.54 186.136 356.686C183.744 360.975 161.137 383.316 156.706 386.881C145.151 396.18 134.637 394.554 122.084 390.388C104.207 382.459 96.6404 358.157 108.315 341.996C112.06 336.811 117.396 332.529 121.985 328.093C130.779 319.594 136.009 312.597 148.63 310.501C152.08 296.257 158.725 293.043 168.593 282.886C170.083 281.352 172.209 279.718 173.245 277.879ZM149.544 321.994C149.196 319.436 148.642 317.131 148.63 314.52C135.808 317.283 116.945 336.236 110.699 345.845C105.167 354.355 105.524 373.464 114.368 378.776C118.252 385.003 126.745 388.749 133.801 389.485C148.633 391.034 156.503 381.129 165.901 371.795C173.959 363.791 184.097 356.788 185.365 344.673C185.868 342.747 184.838 338.177 184.507 336.083C176.991 338.707 173.082 339.257 165.23 337.856C157.018 333.791 152.902 330.754 149.544 321.994Z"/>
	<path fill="#5762EE" transform="scale(2 2)" d="M407.215 85.1693C411.325 88.2617 427.889 105.488 431.517 109.772C449.9 131.48 449.598 166.435 432.418 188.847C426.481 196.593 414.024 208.604 406.368 215.888C385.987 235.278 356.685 243.575 330.585 230.449C337.946 220.551 346.594 217.689 353.002 203.798C369.953 203.621 377.577 192.707 388.666 181.739C398.856 171.658 410.941 163.005 406.527 146.473C405.604 143.017 402.599 135.902 399.411 134.07C391.4 118.015 372.648 109.096 356.031 117.469C349.933 120.541 345.457 126.446 340.686 131.149C330.223 141.464 318.72 150.723 319.799 167.091C311.071 167.819 307.027 171.4 301.222 177.471L292.788 186.33C291.249 187.955 289.468 190.321 287.618 191.526C277.835 170.084 280.573 141.325 295.676 122.908C302.282 114.852 321.37 95.6867 329.472 89.6087C347.515 76.0737 371.628 71.8914 393.119 78.8806C396.526 79.9886 405.306 85.0473 407.215 85.1693Z"/>
	<path fill="#5762EE" transform="scale(2 2)" d="M441.642 116.736C461.676 140.274 462.285 178.762 441.865 202.336C434.387 210.97 418.244 226.734 409.678 233.903C389.18 251.057 359.372 252.14 335.705 241.384C332.181 239.782 328.779 237.72 325.098 236.51C325.902 235.499 326.782 234.576 327.673 233.643C357.45 246.212 384.63 241.504 408.548 219.478C416.151 212.477 428.911 200.038 434.926 192.351C449.507 173.717 453.74 146.995 444.908 124.873C443.822 122.152 441.93 119.731 441.642 116.736Z"/>
	<path fill="#5762EE" transform="scale(2 2)" d="M391.173 129.205C370.177 120.286 359.287 133.16 345.438 146.918C340.562 151.762 330.214 160.365 328.442 167.091C326.899 167.061 325.35 167.087 323.806 167.091C324.024 152.587 332.296 145.042 341.793 135.563C352.155 125.22 360.653 114.708 377.235 119.809C381.995 121.273 388.743 124.655 391.173 129.205Z"/>
	<path fill="#010101" transform="scale(2 2)" d="M143.684 216.209C126.473 209.972 115.48 193.083 116.746 174.82C118.012 156.558 131.229 141.346 149.136 137.544C167.043 133.742 185.302 142.27 193.88 158.442C201.826 173.424 199.73 191.751 188.607 204.552C177.483 217.353 159.628 221.986 143.684 216.209ZM182.606 150.655C167.853 137.021 144.898 137.716 130.996 152.217C117.094 166.718 117.369 189.682 131.613 203.847C141.062 213.244 154.848 216.807 167.667 213.165C180.485 209.523 190.339 199.245 193.437 186.284C196.534 173.323 192.393 159.699 182.606 150.655Z"/>
	<path fill="#FC625D" transform="scale(2 2)" d="M182.606 150.655C192.393 159.699 196.534 173.323 193.437 186.284C190.339 199.245 180.485 209.523 167.667 213.165C154.848 216.807 141.062 213.244 131.613 203.847C131.13 201.88 129.679 199.755 128.829 197.877C115.579 168.592 142.894 136.048 174.446 147.151C177.11 148.089 179.773 150.457 182.606 150.655Z"/>
	<path fill="#FC625D" transform="scale(2 2)" d="M193.88 158.442C206.569 171.937 208.505 191.02 198.454 206.859C197.655 207.78 196.857 208.696 196.11 209.66C193.491 212.006 191.136 214.597 188.319 216.721C175.63 226.281 156.16 225.737 143.684 216.209C159.628 221.986 177.483 217.353 188.607 204.552C199.73 191.751 201.826 173.424 193.88 158.442Z"/>
	<path fill="#5762EE" transform="scale(2 2)" d="M289.831 196.63C290.54 192.648 309.919 171.375 315.883 172.35C306.125 179.722 298.824 189.449 289.831 196.63Z"/>
	<path fill="#14BBAB" transform="scale(2 2)" d="M341.39 180.892C344.026 184.037 344.705 190.025 344.352 193.973C343.4 204.639 333.838 211.45 326.857 218.547L282.126 263.447C273.159 272.627 266.179 280.099 251.944 278.664C248.469 278.313 244.602 277.458 242.001 274.986L241.647 275.251C236.789 278.928 231.291 285.203 226.841 289.604L198.076 318.032C190.134 325.99 183.058 336.096 170.382 334.454C167.239 334.047 162.769 332.702 160.457 330.436C160.283 328.87 159.567 327.149 159.138 325.612C154.693 309.706 163.197 302.166 173.665 291.776L224.589 240.811C238.982 226.361 248.106 213.272 271.913 221.883C275.798 218.915 279.309 214.882 282.792 211.444L303.383 191.002C312.061 182.319 322.073 169.431 336.439 177.528C338.137 178.484 339.478 180.383 341.39 180.892Z"/>
	<path fill="#14BBAB" transform="scale(2 2)" d="M348.492 185.485C351.171 188.896 351.569 191.601 353.002 195.294L353.002 200.158C352.989 201.372 352.975 202.584 353.002 203.798C346.594 217.689 337.946 220.551 330.585 230.449L323.806 227.478C338.828 212.632 349.002 207.633 348.492 185.485Z"/>
	<path fill="#010101" transform="scale(2 2)" d="M196.11 209.66C196.857 208.696 197.655 207.78 198.454 206.859C204.001 212.045 222.423 228.135 214.767 227.45C213.149 227.305 198.046 211.846 196.11 209.66Z"/>
	<path fill="#14BBAB" transform="scale(2 2)" d="M320.657 230.449C323.056 231.34 325.363 232.544 327.673 233.643C326.782 234.576 325.902 235.499 325.098 236.51C317.852 242.42 307.478 253.502 301.213 260.485C299.242 274.545 295.353 283.616 281.996 291.038C280.807 291.41 279.662 291.81 278.508 292.28C267.191 295.318 256.242 293.773 246.756 286.254C244.868 288.205 224.225 308.497 223.954 309.258L223.954 310.501C221.983 308.427 219.996 306.378 217.959 304.368C225.825 296.279 233.963 288.415 242.001 280.496C262.476 286.891 270.942 280.638 284.334 267.067L296.266 254.965C304.379 246.78 312.786 238.869 320.657 230.449Z"/>
	<path fill="#5762EE" transform="scale(2 2)" d="M76.4894 401.969C76.427 399.887 72.9052 395.276 71.8672 393.137C61.5232 371.821 59.8188 344.892 73.4324 324.604C79.1505 316.082 108.206 287.187 116.385 282.278C135.092 271.05 153.367 272.941 173.245 277.879C172.209 279.718 170.083 281.352 168.593 282.886C158.725 293.043 152.08 296.257 148.63 310.501C136.009 312.597 130.779 319.594 121.985 328.093C117.396 332.529 112.06 336.811 108.315 341.996C96.6404 358.157 104.207 382.459 122.084 390.388C123.757 394.763 136.437 398.077 140.71 398.263C157.281 398.984 165.974 386.974 176.411 376.478C193.463 359.33 192.926 362.517 193.738 339.907C193.502 337.583 216.734 314.922 219.415 312.283C240.044 337.826 230.272 373.565 209.806 395.777C204.158 401.907 192.976 412.67 186.491 417.873C155.016 443.128 117.392 439.04 87.993 413.528C84.8735 410.821 78.2776 405.55 76.4894 401.969Z"/>
	<path fill="#010101" transform="scale(2 2)" d="M278.508 292.28C279.662 291.81 280.807 291.41 281.996 291.038C284.61 292.798 306.912 315.139 307.381 316.91C307.668 317.995 306.418 318.999 305.434 319.064C304.902 319.099 282.062 297.545 278.508 292.28Z"/>
	<path fill="#14BBAB" transform="scale(2 2)" d="M214.901 307.546C216.586 308.997 218.083 310.499 219.415 312.283C216.734 314.922 193.502 337.583 193.738 339.907C192.434 341.092 191.144 342.389 189.658 343.347C189.453 340.13 189.204 337.01 187.911 334.024C197.039 325.364 205.951 316.393 214.901 307.546Z"/>
	<path fill="#5762EE" transform="scale(2 2)" d="M223.954 309.258C235.124 319.467 241.273 333.592 241.97 348.777C243.485 381.778 228.909 396.428 207.75 416.997C203.795 420.842 200.082 424.99 195.786 428.466C170.742 448.73 136.431 453.096 108.332 436.756C102.363 433.285 95.2941 428.414 91.7523 422.297C93.8281 422.566 98.6982 426.798 100.743 428.123C126.707 444.945 161.048 440.64 185.609 423.505C199.19 414.031 219.618 392.592 226.834 378.633C236.593 359.755 238.002 336.194 227.74 317.224C226.513 314.955 224.578 313.069 223.954 310.501L223.954 309.258Z"/>
	<path fill="#010101" transform="scale(2 2)" d="M323.012 387.965C306.485 380.259 297.007 362.59 299.728 344.559C302.449 326.529 316.718 312.443 334.782 309.957C352.846 307.47 370.391 317.176 377.882 333.801C384.944 349.473 381.512 367.885 369.279 379.961C357.045 392.037 338.591 395.229 323.012 387.965ZM362.881 321.369C347.824 309.787 326.437 311.509 313.427 325.352C300.417 339.195 300.023 360.647 312.516 374.958C321.772 385.56 336.247 389.984 349.848 386.368C363.449 382.751 373.815 371.722 376.582 357.922C379.349 344.123 374.037 329.95 362.881 321.369Z"/>
	<path fill="#5762EE" transform="scale(2 2)" d="M149.544 321.994C143.792 327.002 120.696 348.103 116.816 353.988C111.22 362.474 112.958 369.548 114.368 378.776C105.524 373.464 105.167 354.355 110.699 345.845C116.945 336.236 135.808 317.283 148.63 314.52C148.642 317.131 149.196 319.436 149.544 321.994Z"/>
	<path fill="#FC625D" transform="scale(2 2)" d="M362.881 321.369C374.037 329.95 379.349 344.123 376.582 357.922C373.815 371.722 363.449 382.751 349.848 386.368C336.247 389.984 321.772 385.56 312.516 374.958C312.416 373.641 310.887 371.448 310.309 370.177C302.84 353.74 309.362 333.446 324.271 323.621C333.458 317.566 348.85 314.954 359.248 319.537C360.532 320.103 361.426 321.168 362.881 321.369Z"/>
	<path fill="#FC625D" transform="scale(2 2)" d="M377.882 333.801C382.793 337.095 384.802 342.875 385.894 348.47C394.512 392.617 342.19 412.531 323.012 387.965C338.591 395.229 357.045 392.037 369.279 379.961C381.512 367.885 384.944 349.473 377.882 333.801Z"/>
	<path fill="#14BBAB" transform="scale(2 2)" d="M165.23 337.856C173.082 339.257 176.991 338.707 184.507 336.083C184.838 338.177 185.868 342.747 185.365 344.673C183.929 343.082 171.405 347.464 165.23 337.856Z"/>
</svg>
